<?xml version="1.0" encoding="UTF-8" standalone="no"?>
<!-- Created with Inkscape (http://www.inkscape.org/) -->

<svg
   xmlns:dc="http://purl.org/dc/elements/1.1/"
   xmlns:cc="http://creativecommons.org/ns#"
   xmlns:rdf="http://www.w3.org/1999/02/22-rdf-syntax-ns#"
   xmlns:svg="http://www.w3.org/2000/svg"
   xmlns="http://www.w3.org/2000/svg"
   xmlns:sodipodi="http://sodipodi.sourceforge.net/DTD/sodipodi-0.dtd"
   xmlns:inkscape="http://www.inkscape.org/namespaces/inkscape"
   width="40"
   height="100"
   viewBox="0 0 10.583333 26.458334"
   version="1.1"
   id="svg8"
   sodipodi:docname="code.svg"
   inkscape:version="0.92.4 (5da689c313, 2019-01-14)">
  <defs
     id="defs2" />
  <sodipodi:namedview
     id="base"
     pagecolor="#ffffff"
     bordercolor="#666666"
     borderopacity="1.0"
     inkscape:pageopacity="0.0"
     inkscape:pageshadow="2"
     inkscape:zoom="7.9195959"
     inkscape:cx="-15.436146"
     inkscape:cy="46.503165"
     inkscape:document-units="px"
     inkscape:current-layer="layer1"
     showgrid="false"
     units="px"
     fit-margin-top="0"
     fit-margin-left="0"
     fit-margin-right="0"
     fit-margin-bottom="0"
     inkscape:window-width="1920"
     inkscape:window-height="1017"
     inkscape:window-x="3832"
     inkscape:window-y="515"
     inkscape:window-maximized="1" />
  <metadata
     id="metadata5">
    <rdf:RDF>
      <cc:Work
         rdf:about="">
        <dc:format>image/svg+xml</dc:format>
        <dc:type
           rdf:resource="http://purl.org/dc/dcmitype/StillImage" />
        <dc:title></dc:title>
      </cc:Work>
    </rdf:RDF>
  </metadata>
  <g
     inkscape:label="Calque 1"
     inkscape:groupmode="layer"
     id="layer1"
     transform="translate(0,-270.54166)">
    <path
       id="path1251-0"
       style="color:#000000;font-style:normal;font-variant:normal;font-weight:normal;font-stretch:normal;font-size:medium;line-height:normal;font-family:sans-serif;font-variant-ligatures:normal;font-variant-position:normal;font-variant-caps:normal;font-variant-numeric:normal;font-variant-alternates:normal;font-feature-settings:normal;text-indent:0;text-align:start;text-decoration:none;text-decoration-line:none;text-decoration-style:solid;text-decoration-color:#000000;letter-spacing:normal;word-spacing:normal;text-transform:none;writing-mode:lr-tb;direction:ltr;text-orientation:mixed;dominant-baseline:auto;baseline-shift:baseline;text-anchor:start;white-space:normal;shape-padding:0;clip-rule:nonzero;display:inline;overflow:visible;visibility:visible;opacity:1;isolation:auto;mix-blend-mode:normal;color-interpolation:sRGB;color-interpolation-filters:linearRGB;solid-color:#000000;solid-opacity:1;vector-effect:none;fill:#434e52;fill-opacity:1;fill-rule:nonzero;stroke:none;stroke-width:0.12295853;stroke-linecap:round;stroke-linejoin:round;stroke-miterlimit:4;stroke-dasharray:none;stroke-dashoffset:0;stroke-opacity:1;color-rendering:auto;image-rendering:auto;shape-rendering:auto;text-rendering:auto;enable-background:accumulate"
       d="m 6.6814825,279.34116 a 0.06041964,0.0625999 0 0 0 0.012939,0.12448 h 2.5027154 a 0.06040521,0.06258495 0 1 0 0,-0.12448 h -2.502716 a 0.06040521,0.06258495 0 0 0 -0.012938,0 z m 0.00739,-0.54955 a 0.06106409,0.06260097 0 0 0 0.00554,0.12507 h 2.5027149 a 0.06100109,0.0625364 0 1 0 0,-0.12507 H 6.6944213 a 0.06040521,0.06192552 0 0 0 -0.00554,0 z m -0.6034559,-2.22835 v 0.1257 3.38069 h 3.7041667 v -3.50639 z m 0.2476839,0.24954 h 3.2087997 v 3.00917 H 6.333104 Z m 0.3613172,1.44265 a 0.06099853,0.06259869 0 1 0 0,0.12519 h 2.5008672 a 0.06099853,0.06259869 0 1 0 0,-0.12519 z m 0,-1.10718 a 0.06099853,0.06259869 0 1 0 0,0.12519 h 2.5008672 a 0.06099853,0.06259869 0 1 0 0,-0.12519 z m -0.00739,0.55704 a 0.06040521,0.06259869 0 0 0 0.00739,0.12451 h 2.5008672 a 0.06040521,0.06259869 0 1 0 0,-0.12451 H 6.6944213 a 0.06040521,0.06259869 0 0 0 -0.00739,0 z"
       inkscape:connector-curvature="0" />
    <path
       id="path2657-5"
       style="color:#000000;font-style:normal;font-variant:normal;font-weight:normal;font-stretch:normal;font-size:medium;line-height:normal;font-family:sans-serif;font-variant-ligatures:normal;font-variant-position:normal;font-variant-caps:normal;font-variant-numeric:normal;font-variant-alternates:normal;font-feature-settings:normal;text-indent:0;text-align:start;text-decoration:none;text-decoration-line:none;text-decoration-style:solid;text-decoration-color:#000000;letter-spacing:normal;word-spacing:normal;text-transform:none;writing-mode:lr-tb;direction:ltr;text-orientation:mixed;dominant-baseline:auto;baseline-shift:baseline;text-anchor:start;white-space:normal;shape-padding:0;clip-rule:nonzero;display:inline;overflow:visible;visibility:visible;opacity:1;isolation:auto;mix-blend-mode:normal;color-interpolation:sRGB;color-interpolation-filters:linearRGB;solid-color:#000000;solid-opacity:1;vector-effect:none;fill:#434e52;fill-opacity:1;fill-rule:nonzero;stroke:none;stroke-width:0.13996765;stroke-linecap:round;stroke-linejoin:round;stroke-miterlimit:4;stroke-dasharray:none;stroke-dashoffset:0;stroke-opacity:1;color-rendering:auto;image-rendering:auto;shape-rendering:auto;text-rendering:auto;enable-background:accumulate"
       d="m 1.3216986,277.13262 a 0.0699913,0.0699913 0 1 0 0,0.13998 h 0.5816258 a 0.0699913,0.0699913 0 1 0 0,-0.13998 z m 1.0212954,0 a 0.0699913,0.0699913 0 1 0 0,0.13998 h 1.496454 a 0.0699913,0.0699913 0 1 0 0,-0.13998 z m -1.0350967,0.55796 a 0.07033432,0.07033432 0 0 0 0.013801,0.13999 h 0.5816258 a 0.069995,0.069995 0 1 0 0,-0.13999 H 1.3216986 a 0.06999083,0.06999083 0 0 0 -0.013801,0 z m 1.0193238,0 a 0.07043789,0.07043789 0 0 0 0.015773,0.13999 h 1.496454 a 0.069995,0.069995 0 1 0 0,-0.13999 h -1.496454 a 0.06999083,0.06999083 0 0 0 -0.015773,0 z m -1.0134089,0.55008 a 0.07010229,0.07010229 0 0 0 0.00788,0.13998 H 1.903318 a 0.0699913,0.0699913 0 1 0 0,-0.13998 H 1.3216986 a 0.06999083,0.06999083 0 0 0 -0.00788,0 z m 1.0212953,0 a 0.07010229,0.07010229 0 0 0 0.00788,0.13998 h 1.4964541 a 0.0699913,0.0699913 0 1 0 0,-0.13998 H 2.342994 a 0.06999083,0.06999083 0 0 0 -0.00788,0 z m -1.0212953,0.53628 a 0.07010229,0.07010229 0 0 0 0.00788,0.13998 H 1.903318 a 0.0699913,0.0699913 0 1 0 0,-0.13998 H 1.3216986 a 0.06999083,0.06999083 0 0 0 -0.00788,0 z m 1.0212953,0 a 0.07010229,0.07010229 0 0 0 0.00788,0.13998 h 1.4964541 a 0.0699913,0.0699913 0 1 0 0,-0.13998 H 2.342994 a 0.06999083,0.06999083 0 0 0 -0.00788,0 z m -1.0272102,0.55008 a 0.07033569,0.07033569 0 0 0 0.013801,0.13999 h 0.5816258 a 0.06999635,0.06999635 0 1 0 0,-0.13999 H 1.3216986 a 0.06999083,0.06999083 0 0 0 -0.013801,0 z m 1.0193238,0 a 0.07043923,0.07043923 0 0 0 0.015773,0.13999 h 1.496454 a 0.06999635,0.06999635 0 1 0 0,-0.13999 h -1.496454 a 0.06999083,0.06999083 0 0 0 -0.015773,0 z M 0.79375,276.56316 v 0.1257 3.3807 h 3.7041666 v -3.5064 z m 0.2476839,0.24954 h 3.2087996 v 3.00917 H 1.0414339 Z"
       inkscape:connector-curvature="0" />
    <path
       id="rect2090-3-1"
       style="color:#000000;font-style:normal;font-variant:normal;font-weight:normal;font-stretch:normal;font-size:medium;line-height:normal;font-family:sans-serif;font-variant-ligatures:normal;font-variant-position:normal;font-variant-caps:normal;font-variant-numeric:normal;font-variant-alternates:normal;font-feature-settings:normal;text-indent:0;text-align:start;text-decoration:none;text-decoration-line:none;text-decoration-style:solid;text-decoration-color:#000000;letter-spacing:normal;word-spacing:normal;text-transform:none;writing-mode:lr-tb;direction:ltr;text-orientation:mixed;dominant-baseline:auto;baseline-shift:baseline;text-anchor:start;white-space:normal;shape-padding:0;clip-rule:nonzero;display:inline;overflow:visible;visibility:visible;opacity:1;isolation:auto;mix-blend-mode:normal;color-interpolation:sRGB;color-interpolation-filters:linearRGB;solid-color:#000000;solid-opacity:1;vector-effect:none;fill:#434e52;fill-opacity:1;fill-rule:nonzero;stroke:none;stroke-width:0.24801373;stroke-linecap:butt;stroke-linejoin:miter;stroke-miterlimit:4;stroke-dasharray:none;stroke-dashoffset:0;stroke-opacity:1;color-rendering:auto;image-rendering:auto;shape-rendering:auto;text-rendering:auto;enable-background:accumulate"
       d="m 0.79375,292.52718 v 0.12569 3.3807 h 3.7041666 v -3.50639 z m 0.2476841,0.24954 h 3.2087995 v 3.00917 H 1.0414341 Z m 0.3613169,0.33547 a 0.06099852,0.06259868 0 1 0 0,0.12519 h 2.5008675 a 0.06099852,0.06259868 0 1 0 0,-0.12519 z m -0.00739,0.55704 a 0.0604052,0.06259868 0 0 0 0.00738,0.12451 h 2.5008675 a 0.0604052,0.06259868 0 1 0 0,-0.12451 h -2.500867 a 0.0604052,0.06259868 0 0 0 -0.00738,0 z m 2.2012626,1.19612 v 3.2e-4 h 0.2985887 v -0.90594 H 3.5966196 v 0.593 H 1.9851394 v -0.28882 l -0.3079275,0.22258 -0.3079273,0.22254 0.3079273,0.22259 0.3079275,0.22254 v -0.28881 z"
       inkscape:connector-curvature="0" />
    <path
       id="path861"
       style="font-style:normal;font-variant:normal;font-weight:normal;font-stretch:normal;font-size:16px;line-height:1.25;font-family:'Open Sans';-inkscape-font-specification:'Open Sans';letter-spacing:0px;word-spacing:0px;fill:#434e52;fill-opacity:1;stroke:none;stroke-width:0.17524163"
       d="m 3.6286797,283.56328 q -0.3053038,-0.0534 -0.3053038,-0.34774 v -0.40388 q 0,-0.26423 -0.3107796,-0.27244 v -0.1903 q 0.2519094,0 0.3956624,0.1191 0.1451214,0.11912 0.1451214,0.32859 v 0.41893 q 0,0.1328 0.080779,0.19578 0.080778,0.0616 0.2587542,0.0644 v 0.19304 q -0.1670264,0 -0.2532785,0.0616 -0.086251,0.0602 -0.086251,0.20262 v 0.41483 q 0,0.20947 -0.1410146,0.32584 -0.1396447,0.11775 -0.3997692,0.12048 v -0.19167 q 0.1519673,-0.003 0.2313735,-0.0657 0.079406,-0.063 0.079406,-0.20263 v -0.40661 q 0,-0.15608 0.075296,-0.23823 0.075296,-0.0822 0.2300043,-0.10951 z m -1.6609245,0.77079 q 0,0.13965 0.079406,0.20263 0.080778,0.063 0.23548,0.0657 v 0.19167 q -0.2601251,-0.003 -0.4025081,-0.11907 -0.1423839,-0.11637 -0.1423839,-0.32721 v -0.41483 q 0,-0.14239 -0.086251,-0.20262 -0.086251,-0.0616 -0.250541,-0.0616 v -0.19304 q 0.1779798,-0.003 0.257386,-0.0657 0.079406,-0.063 0.079406,-0.1944 v -0.41894 q 0,-0.21222 0.1478597,-0.32996 0.1478607,-0.11773 0.3970316,-0.11773 v 0.1903 q -0.3148871,0.008 -0.3148871,0.27244 v 0.40389 q 0,0.29434 -0.3053029,0.34774 v 0.0165 q 0.3053029,0.0534 0.3053029,0.34774 z M 0.79375,281.90486 v 0.1257 3.38069 h 3.7041666 v -3.50639 z m 0.2476838,0.24954 h 3.2087991 v 3.00917 H 1.0414338 Z"
       inkscape:connector-curvature="0" />
    <path
       id="polygon826-2"
       style="fill:#434e52;fill-opacity:1;stroke-width:0.02749174"
       d="m 2.1531852,288.31288 -0.4157597,0.30048 -0.4157597,0.30047 0.4157597,0.30048 0.4157597,0.30047 v -0.38968 h 0.306212 0.4272362 0.3062118 v 0.38968 l 0.4157599,-0.30047 0.4157598,-0.30048 -0.4157598,-0.30047 -0.4157599,-0.30048 v 0.3902 H 2.8866334 2.4593972 2.1531852 Z M 0.79375,287.15318 v 0.1257 3.38069 h 3.7041666 v -3.50639 z m 0.2476839,0.24954 h 3.2087999 v 3.00917 H 1.0414339 Z"
       inkscape:connector-curvature="0" />
    <path
       style="color:#000000;font-style:normal;font-variant:normal;font-weight:normal;font-stretch:normal;font-size:medium;line-height:normal;font-family:sans-serif;font-variant-ligatures:normal;font-variant-position:normal;font-variant-caps:normal;font-variant-numeric:normal;font-variant-alternates:normal;font-feature-settings:normal;text-indent:0;text-align:start;text-decoration:none;text-decoration-line:none;text-decoration-style:solid;text-decoration-color:#000000;letter-spacing:normal;word-spacing:normal;text-transform:none;writing-mode:lr-tb;direction:ltr;text-orientation:mixed;dominant-baseline:auto;baseline-shift:baseline;text-anchor:start;white-space:normal;shape-padding:0;clip-rule:nonzero;display:inline;overflow:visible;visibility:visible;opacity:1;isolation:auto;mix-blend-mode:normal;color-interpolation:sRGB;color-interpolation-filters:linearRGB;solid-color:#000000;solid-opacity:1;vector-effect:none;fill:#434e52;fill-opacity:1;fill-rule:nonzero;stroke:none;stroke-width:0.09996723;stroke-linecap:round;stroke-linejoin:round;stroke-miterlimit:4;stroke-dasharray:none;stroke-dashoffset:0;stroke-opacity:1;color-rendering:auto;image-rendering:auto;shape-rendering:auto;text-rendering:auto;enable-background:accumulate"
       d="m 0.79375,271.25337 v 0.10796 2.89951 h 1.3029733 v 0.47333 h 2.4011934 v -3.00748 H 3.1949435 v -0.47332 z m 0.16061138,0.21432 H 3.0343321 v 0.259 H 2.0967233 v 0.10796 0.0154 H 1.1888966 a 0.03953998,0.06381909 0 0 0 -0.00425,0 0.03959761,0.0639121 0 0 0 0.00425,0.12764 h 0.9078267 v 0.43982 H 1.1888966 a 0.03915538,0.06381909 0 0 0 -0.00479,0 0.03915538,0.06381909 0 0 0 0.00479,0.1271 h 0.9078267 v 0.43397 H 1.1888966 a 0.03954054,0.06382 0 0 0 0,0.12764 h 0.9078267 v 0.41908 H 1.1888966 a 0.03915538,0.06313279 0 0 0 -0.00372,0 0.03962526,0.06389042 0 0 0 0.00372,0.12764 h 0.9078267 v 0.39568 H 0.95436138 Z m 1.30297322,0.47333 h 2.0799709 v 2.58095 H 2.2573346 Z m 0.2302806,0.38238 a 0.03959761,0.0639121 0 0 0 0.00425,0.12764 h 1.6210051 a 0.03954054,0.06382 0 1 0 0,-0.12764 H 2.4918698 a 0.03953998,0.06381909 0 0 0 -0.00425,0 z m 0,0.56746 a 0.03915538,0.06381909 0 0 0 -5.309e-4,5.3e-4 0.03915538,0.06381909 0 0 0 0.00479,0.12658 h 1.6210051 a 0.03915538,0.06381909 0 1 0 0,-0.12658 h -1.621006 a 0.03915538,0.06381909 0 0 0 -0.00425,-5.3e-4 z m 0.00425,0.56108 a 0.03954054,0.06382 0 1 0 0,0.12764 h 1.6210051 a 0.03954054,0.06382 0 1 0 0,-0.12764 z m -0.00372,0.54671 a 0.03962526,0.06389042 0 0 0 0.00372,0.12764 h 1.6220687 a 0.03958159,0.06382 0 0 0 0,-0.12764 H 2.4918698 a 0.03915538,0.06313279 0 0 0 -0.00372,0 z"
       id="path1247-1"
       inkscape:connector-curvature="0" />
  </g>
</svg>
